<svg xmlns="http://www.w3.org/2000/svg" xmlns:xlink="http://www.w3.org/1999/xlink" width="500" zoomAndPan="magnify" viewBox="0 0 375 374.999991" height="500" preserveAspectRatio="xMidYMid meet" version="1.0"><defs><g/><clipPath id="dce23edbda"><path d="M 81.773438 86.699219 L 293.214844 86.699219 L 293.214844 298.140625 L 81.773438 298.140625 Z M 81.773438 86.699219 " clip-rule="nonzero"/></clipPath><clipPath id="444514a60b"><path d="M 187.496094 86.699219 C 129.109375 86.699219 81.773438 134.03125 81.773438 192.417969 C 81.773438 250.804688 129.109375 298.140625 187.496094 298.140625 C 245.882812 298.140625 293.214844 250.804688 293.214844 192.417969 C 293.214844 134.03125 245.882812 86.699219 187.496094 86.699219 Z M 187.496094 86.699219 " clip-rule="nonzero"/></clipPath></defs><g clip-path="url(#dce23edbda)"><g clip-path="url(#444514a60b)"><path stroke-linecap="butt" transform="matrix(0.75, 0, 0, 0.75, 81.774966, 86.697885)" fill="none" stroke-linejoin="miter" d="M 140.961512 0.00177872 C 63.112549 0.00177872 -0.00203844 63.111158 -0.00203844 140.960121 C -0.00203844 218.809085 63.112549 281.923672 140.961512 281.923672 C 218.810476 281.923672 281.919855 218.809085 281.919855 140.960121 C 281.919855 63.111158 218.810476 0.00177872 140.961512 0.00177872 Z M 140.961512 0.00177872 " stroke="#ffffff" stroke-width="8" stroke-opacity="1" stroke-miterlimit="4"/></g></g><g fill="#ffffff" fill-opacity="1"><g transform="translate(124.10076, 261.835677)"><g><path d="M 97.4375 -47.734375 L 63.546875 -0.453125 L 29.359375 -47.890625 L 29.359375 0 L 12.5 0 L 12.5 -100.59375 L 63.546875 -29.515625 L 114.296875 -100.59375 L 114.296875 0 L 97.4375 0 Z M 97.4375 -47.734375 "/></g></g></g><g fill="#ffffff" fill-opacity="1"><g transform="translate(124.10076, 214.640945)"><g><path d="M 97.4375 -47.734375 L 63.546875 -0.453125 L 29.359375 -47.890625 L 29.359375 0 L 12.5 0 L 12.5 -100.59375 L 63.546875 -29.515625 L 114.296875 -100.59375 L 114.296875 0 L 97.4375 0 Z M 97.4375 -47.734375 "/></g></g></g><path fill="#ffffff" d="M 118.890625 199.566406 L 261.945312 199.566406 L 261.945312 218.34375 L 118.890625 218.34375 L 118.890625 199.566406 " fill-opacity="1" fill-rule="nonzero"/><g fill="#000000" fill-opacity="1"><g transform="translate(125.117875, 212.32938)"><g><path d="M 0.546875 0.015625 L 0.546875 -0.015625 L 0.609375 -0.015625 C 0.691406 -0.015625 0.765625 -0.0703125 0.828125 -0.1875 C 0.890625 -0.300781 0.925781 -0.429688 0.9375 -0.578125 C 0.976562 -1.835938 1.015625 -3.101562 1.046875 -4.375 C 1.078125 -5.65625 1.113281 -6.929688 1.15625 -8.203125 C 1.082031 -8.347656 0.988281 -8.472656 0.875 -8.578125 C 0.769531 -8.679688 0.660156 -8.734375 0.546875 -8.734375 L 0.546875 -8.765625 L 1.859375 -8.765625 L 4.75 -1 L 7.390625 -8.765625 L 8.53125 -8.765625 L 8.546875 -8.734375 C 8.328125 -8.734375 8.207031 -8.582031 8.1875 -8.28125 L 8.390625 -0.578125 C 8.398438 -0.429688 8.4375 -0.300781 8.5 -0.1875 C 8.570312 -0.0703125 8.648438 -0.015625 8.734375 -0.015625 L 8.796875 -0.015625 L 8.796875 0.015625 L 7.25 0.015625 L 7.25 -0.015625 C 7.46875 -0.015625 7.585938 -0.175781 7.609375 -0.5 L 7.421875 -8.03125 L 4.625 -0.046875 L 4.625 0.015625 L 4.421875 0.015625 C 3.898438 -1.265625 3.382812 -2.546875 2.875 -3.828125 C 2.375 -5.117188 1.863281 -6.410156 1.34375 -7.703125 L 1.21875 -0.578125 C 1.21875 -0.429688 1.25 -0.300781 1.3125 -0.1875 C 1.375 -0.0703125 1.445312 -0.015625 1.53125 -0.015625 L 1.59375 -0.015625 L 1.59375 0.015625 Z M 0.546875 0.015625 "/></g></g></g><g fill="#000000" fill-opacity="1"><g transform="translate(137.424142, 212.32938)"><g><path d="M 4.5625 0.109375 C 4.070312 0.109375 3.59375 -0.015625 3.125 -0.265625 C 2.65625 -0.515625 2.234375 -0.851562 1.859375 -1.28125 C 1.484375 -1.707031 1.1875 -2.1875 0.96875 -2.71875 C 0.75 -3.257812 0.640625 -3.816406 0.640625 -4.390625 C 0.640625 -4.953125 0.75 -5.5 0.96875 -6.03125 C 1.195312 -6.570312 1.503906 -7.054688 1.890625 -7.484375 C 2.273438 -7.910156 2.707031 -8.25 3.1875 -8.5 C 3.664062 -8.75 4.160156 -8.875 4.671875 -8.875 C 5.191406 -8.875 5.695312 -8.75 6.1875 -8.5 C 6.6875 -8.25 7.128906 -7.910156 7.515625 -7.484375 C 7.910156 -7.054688 8.222656 -6.570312 8.453125 -6.03125 C 8.691406 -5.5 8.8125 -4.953125 8.8125 -4.390625 C 8.8125 -3.816406 8.691406 -3.257812 8.453125 -2.71875 C 8.210938 -2.1875 7.890625 -1.707031 7.484375 -1.28125 C 7.078125 -0.851562 6.625 -0.515625 6.125 -0.265625 C 5.625 -0.015625 5.101562 0.109375 4.5625 0.109375 Z M 4.578125 0.0625 C 5.003906 0.0625 5.414062 -0.0625 5.8125 -0.3125 C 6.21875 -0.570312 6.582031 -0.910156 6.90625 -1.328125 C 7.226562 -1.742188 7.484375 -2.21875 7.671875 -2.75 C 7.859375 -3.28125 7.953125 -3.828125 7.953125 -4.390625 C 7.953125 -4.941406 7.859375 -5.484375 7.671875 -6.015625 C 7.492188 -6.546875 7.25 -7.019531 6.9375 -7.4375 C 6.625 -7.863281 6.269531 -8.203125 5.875 -8.453125 C 5.476562 -8.703125 5.070312 -8.828125 4.65625 -8.828125 C 4.257812 -8.828125 3.867188 -8.703125 3.484375 -8.453125 C 3.109375 -8.203125 2.769531 -7.863281 2.46875 -7.4375 C 2.164062 -7.019531 1.925781 -6.546875 1.75 -6.015625 C 1.570312 -5.484375 1.484375 -4.941406 1.484375 -4.390625 C 1.484375 -3.828125 1.570312 -3.28125 1.75 -2.75 C 1.925781 -2.21875 2.160156 -1.742188 2.453125 -1.328125 C 2.742188 -0.910156 3.070312 -0.570312 3.4375 -0.3125 C 3.800781 -0.0625 4.179688 0.0625 4.578125 0.0625 Z M 4.578125 0.0625 "/></g></g></g><g fill="#000000" fill-opacity="1"><g transform="translate(150.238413, 212.32938)"><g><path d="M 6.53125 0.015625 C 5.632812 -1.265625 4.742188 -2.539062 3.859375 -3.8125 C 2.984375 -5.082031 2.097656 -6.351562 1.203125 -7.625 L 1.21875 -0.578125 C 1.21875 -0.441406 1.25 -0.316406 1.3125 -0.203125 C 1.382812 -0.0859375 1.460938 -0.03125 1.546875 -0.03125 L 1.609375 -0.03125 L 1.609375 0 L 0.59375 0 L 0.59375 -0.015625 L 0.65625 -0.015625 C 0.738281 -0.015625 0.8125 -0.0703125 0.875 -0.1875 C 0.945312 -0.300781 0.984375 -0.429688 0.984375 -0.578125 L 1 -7.90625 L 0.8125 -8.171875 C 0.6875 -8.335938 0.554688 -8.472656 0.421875 -8.578125 C 0.285156 -8.679688 0.15625 -8.734375 0.03125 -8.734375 L 0.03125 -8.765625 L 1.375 -8.765625 L 6.421875 -1.578125 L 6.53125 -1.4375 L 6.5 -8.171875 L 6.5 -8.765625 L 7.125 -8.765625 L 7.125 -8.734375 L 7.0625 -8.734375 C 6.988281 -8.734375 6.914062 -8.675781 6.84375 -8.5625 C 6.769531 -8.445312 6.734375 -8.316406 6.734375 -8.171875 L 6.6875 0.015625 Z M 6.53125 0.015625 "/></g></g></g><g fill="#000000" fill-opacity="1"><g transform="translate(161.41824, 212.32938)"><g><path d="M 1.125 0.015625 L 1.125 -8.765625 L 5.640625 -8.765625 L 5.640625 -8.734375 L 5.75 -7.765625 L 5.65625 -7.765625 L 5.59375 -7.90625 C 5.5625 -8.039062 5.484375 -8.164062 5.359375 -8.28125 C 5.242188 -8.40625 5.101562 -8.503906 4.9375 -8.578125 C 4.78125 -8.660156 4.625 -8.703125 4.46875 -8.703125 L 1.90625 -8.703125 L 1.90625 -4.546875 L 3.796875 -4.546875 C 3.941406 -4.546875 4.085938 -4.582031 4.234375 -4.65625 C 4.390625 -4.738281 4.519531 -4.835938 4.625 -4.953125 C 4.738281 -5.078125 4.804688 -5.207031 4.828125 -5.34375 L 4.859375 -5.484375 L 4.953125 -5.484375 L 4.953125 -4.546875 L 4.96875 -4.546875 L 4.96875 -4.5 L 4.953125 -4.5 L 4.953125 -3.5625 L 4.859375 -3.5625 L 4.828125 -3.703125 C 4.804688 -3.835938 4.738281 -3.960938 4.625 -4.078125 C 4.519531 -4.203125 4.390625 -4.300781 4.234375 -4.375 C 4.085938 -4.457031 3.941406 -4.5 3.796875 -4.5 L 1.90625 -4.5 L 1.90625 -0.359375 C 1.90625 -0.285156 1.929688 -0.210938 1.984375 -0.140625 C 2.046875 -0.078125 2.144531 -0.046875 2.28125 -0.046875 L 4.484375 -0.046875 C 4.679688 -0.046875 4.878906 -0.078125 5.078125 -0.140625 C 5.273438 -0.210938 5.453125 -0.300781 5.609375 -0.40625 C 5.765625 -0.507812 5.863281 -0.617188 5.90625 -0.734375 L 5.96875 -0.875 L 6.0625 -0.875 C 6.050781 -0.84375 6.035156 -0.757812 6.015625 -0.625 C 5.992188 -0.488281 5.96875 -0.351562 5.9375 -0.21875 C 5.914062 -0.0820312 5.90625 -0.0078125 5.90625 0 Z M 1.125 0.015625 "/></g></g></g><g fill="#000000" fill-opacity="1"><g transform="translate(171.250751, 212.32938)"><g><path d="M 3.34375 0 L 3.34375 -3.828125 L 0.703125 -8.234375 C 0.609375 -8.378906 0.515625 -8.5 0.421875 -8.59375 C 0.328125 -8.6875 0.25 -8.734375 0.1875 -8.734375 L 0.1875 -8.765625 L 1.90625 -8.765625 L 1.921875 -8.734375 L 1.828125 -8.734375 C 1.710938 -8.734375 1.640625 -8.671875 1.609375 -8.546875 C 1.578125 -8.429688 1.597656 -8.300781 1.671875 -8.15625 L 4.109375 -4.015625 L 6.3125 -8.125 C 6.382812 -8.28125 6.390625 -8.421875 6.328125 -8.546875 C 6.265625 -8.671875 6.160156 -8.734375 6.015625 -8.734375 L 5.8125 -8.734375 L 5.8125 -8.765625 L 7.21875 -8.765625 L 7.21875 -8.734375 C 7.082031 -8.734375 6.945312 -8.6875 6.8125 -8.59375 C 6.675781 -8.507812 6.554688 -8.382812 6.453125 -8.21875 L 4.125 -3.9375 L 4.125 0 Z M 3.34375 0 "/></g></g></g><g fill="#000000" fill-opacity="1"><g transform="translate(181.955703, 212.32938)"><g><path d="M 0.546875 0.015625 L 0.546875 -0.015625 L 0.609375 -0.015625 C 0.691406 -0.015625 0.765625 -0.0703125 0.828125 -0.1875 C 0.890625 -0.300781 0.925781 -0.429688 0.9375 -0.578125 C 0.976562 -1.835938 1.015625 -3.101562 1.046875 -4.375 C 1.078125 -5.65625 1.113281 -6.929688 1.15625 -8.203125 C 1.082031 -8.347656 0.988281 -8.472656 0.875 -8.578125 C 0.769531 -8.679688 0.660156 -8.734375 0.546875 -8.734375 L 0.546875 -8.765625 L 1.859375 -8.765625 L 4.75 -1 L 7.390625 -8.765625 L 8.53125 -8.765625 L 8.546875 -8.734375 C 8.328125 -8.734375 8.207031 -8.582031 8.1875 -8.28125 L 8.390625 -0.578125 C 8.398438 -0.429688 8.4375 -0.300781 8.5 -0.1875 C 8.570312 -0.0703125 8.648438 -0.015625 8.734375 -0.015625 L 8.796875 -0.015625 L 8.796875 0.015625 L 7.25 0.015625 L 7.25 -0.015625 C 7.46875 -0.015625 7.585938 -0.175781 7.609375 -0.5 L 7.421875 -8.03125 L 4.625 -0.046875 L 4.625 0.015625 L 4.421875 0.015625 C 3.898438 -1.265625 3.382812 -2.546875 2.875 -3.828125 C 2.375 -5.117188 1.863281 -6.410156 1.34375 -7.703125 L 1.21875 -0.578125 C 1.21875 -0.429688 1.25 -0.300781 1.3125 -0.1875 C 1.375 -0.0703125 1.445312 -0.015625 1.53125 -0.015625 L 1.59375 -0.015625 L 1.59375 0.015625 Z M 0.546875 0.015625 "/></g></g></g><g fill="#000000" fill-opacity="1"><g transform="translate(194.261969, 212.32938)"><g><path d="M -0.328125 0 L -0.328125 -0.03125 L -0.171875 -0.03125 C -0.046875 -0.03125 0.09375 -0.0820312 0.25 -0.1875 C 0.40625 -0.300781 0.546875 -0.441406 0.671875 -0.609375 C 0.804688 -0.773438 0.90625 -0.953125 0.96875 -1.140625 L 3.21875 -8.421875 L 3.1875 -8.53125 C 3.351562 -8.550781 3.492188 -8.609375 3.609375 -8.703125 C 3.722656 -8.796875 3.769531 -8.894531 3.75 -9 L 3.828125 -9 C 4.234375 -7.6875 4.640625 -6.375 5.046875 -5.0625 C 5.460938 -3.757812 5.875 -2.453125 6.28125 -1.140625 C 6.332031 -0.953125 6.40625 -0.773438 6.5 -0.609375 C 6.59375 -0.441406 6.6875 -0.300781 6.78125 -0.1875 C 6.882812 -0.0820312 6.96875 -0.03125 7.03125 -0.03125 L 7.109375 -0.03125 L 7.109375 0 L 4.859375 0 L 4.84375 -0.046875 L 5 -0.046875 C 5.1875 -0.046875 5.328125 -0.144531 5.421875 -0.34375 C 5.515625 -0.550781 5.535156 -0.78125 5.484375 -1.03125 L 4.75 -3.4375 L 1.734375 -3.4375 L 1.03125 -1.140625 C 0.9375 -0.867188 0.9375 -0.613281 1.03125 -0.375 C 1.125 -0.144531 1.269531 -0.03125 1.46875 -0.03125 L 1.609375 -0.03125 L 1.609375 0 Z M 1.75 -3.515625 L 4.71875 -3.515625 L 3.234375 -8.359375 Z M 1.75 -3.515625 "/></g></g></g><g fill="#000000" fill-opacity="1"><g transform="translate(204.77918, 212.32938)"><g><path d="M 6.53125 0.015625 C 5.632812 -1.265625 4.742188 -2.539062 3.859375 -3.8125 C 2.984375 -5.082031 2.097656 -6.351562 1.203125 -7.625 L 1.21875 -0.578125 C 1.21875 -0.441406 1.25 -0.316406 1.3125 -0.203125 C 1.382812 -0.0859375 1.460938 -0.03125 1.546875 -0.03125 L 1.609375 -0.03125 L 1.609375 0 L 0.59375 0 L 0.59375 -0.015625 L 0.65625 -0.015625 C 0.738281 -0.015625 0.8125 -0.0703125 0.875 -0.1875 C 0.945312 -0.300781 0.984375 -0.429688 0.984375 -0.578125 L 1 -7.90625 L 0.8125 -8.171875 C 0.6875 -8.335938 0.554688 -8.472656 0.421875 -8.578125 C 0.285156 -8.679688 0.15625 -8.734375 0.03125 -8.734375 L 0.03125 -8.765625 L 1.375 -8.765625 L 6.421875 -1.578125 L 6.53125 -1.4375 L 6.5 -8.171875 L 6.5 -8.765625 L 7.125 -8.765625 L 7.125 -8.734375 L 7.0625 -8.734375 C 6.988281 -8.734375 6.914062 -8.675781 6.84375 -8.5625 C 6.769531 -8.445312 6.734375 -8.316406 6.734375 -8.171875 L 6.6875 0.015625 Z M 6.53125 0.015625 "/></g></g></g><g fill="#000000" fill-opacity="1"><g transform="translate(215.959004, 212.32938)"><g><path d="M -0.328125 0 L -0.328125 -0.03125 L -0.171875 -0.03125 C -0.046875 -0.03125 0.09375 -0.0820312 0.25 -0.1875 C 0.40625 -0.300781 0.546875 -0.441406 0.671875 -0.609375 C 0.804688 -0.773438 0.90625 -0.953125 0.96875 -1.140625 L 3.21875 -8.421875 L 3.1875 -8.53125 C 3.351562 -8.550781 3.492188 -8.609375 3.609375 -8.703125 C 3.722656 -8.796875 3.769531 -8.894531 3.75 -9 L 3.828125 -9 C 4.234375 -7.6875 4.640625 -6.375 5.046875 -5.0625 C 5.460938 -3.757812 5.875 -2.453125 6.28125 -1.140625 C 6.332031 -0.953125 6.40625 -0.773438 6.5 -0.609375 C 6.59375 -0.441406 6.6875 -0.300781 6.78125 -0.1875 C 6.882812 -0.0820312 6.96875 -0.03125 7.03125 -0.03125 L 7.109375 -0.03125 L 7.109375 0 L 4.859375 0 L 4.84375 -0.046875 L 5 -0.046875 C 5.1875 -0.046875 5.328125 -0.144531 5.421875 -0.34375 C 5.515625 -0.550781 5.535156 -0.78125 5.484375 -1.03125 L 4.75 -3.4375 L 1.734375 -3.4375 L 1.03125 -1.140625 C 0.9375 -0.867188 0.9375 -0.613281 1.03125 -0.375 C 1.125 -0.144531 1.269531 -0.03125 1.46875 -0.03125 L 1.609375 -0.03125 L 1.609375 0 Z M 1.75 -3.515625 L 4.71875 -3.515625 L 3.234375 -8.359375 Z M 1.75 -3.515625 "/></g></g></g><g fill="#000000" fill-opacity="1"><g transform="translate(226.476221, 212.32938)"><g><path d="M 4.4375 0.109375 C 3.957031 0.109375 3.488281 -0.015625 3.03125 -0.265625 C 2.582031 -0.515625 2.175781 -0.851562 1.8125 -1.28125 C 1.457031 -1.707031 1.171875 -2.1875 0.953125 -2.71875 C 0.742188 -3.257812 0.640625 -3.816406 0.640625 -4.390625 C 0.640625 -4.953125 0.75 -5.5 0.96875 -6.03125 C 1.1875 -6.570312 1.476562 -7.054688 1.84375 -7.484375 C 2.207031 -7.910156 2.625 -8.25 3.09375 -8.5 C 3.5625 -8.75 4.039062 -8.875 4.53125 -8.875 C 5.03125 -8.875 5.488281 -8.789062 5.90625 -8.625 C 6.332031 -8.46875 6.707031 -8.269531 7.03125 -8.03125 C 7.195312 -7.914062 7.347656 -7.84375 7.484375 -7.8125 C 7.617188 -7.789062 7.691406 -7.828125 7.703125 -7.921875 L 7.71875 -8.078125 L 7.765625 -8.078125 L 7.765625 -6.84375 L 7.640625 -6.859375 C 7.628906 -6.867188 7.613281 -6.890625 7.59375 -6.921875 C 7.582031 -6.960938 7.570312 -6.988281 7.5625 -7 C 7.5 -7.144531 7.398438 -7.289062 7.265625 -7.4375 C 7.140625 -7.582031 7.007812 -7.710938 6.875 -7.828125 C 6.738281 -7.953125 6.625 -8.050781 6.53125 -8.125 C 6.4375 -8.195312 6.390625 -8.234375 6.390625 -8.234375 C 6.117188 -8.410156 5.820312 -8.554688 5.5 -8.671875 C 5.1875 -8.785156 4.867188 -8.84375 4.546875 -8.84375 C 4.171875 -8.84375 3.800781 -8.71875 3.4375 -8.46875 C 3.070312 -8.21875 2.738281 -7.878906 2.4375 -7.453125 C 2.144531 -7.035156 1.910156 -6.5625 1.734375 -6.03125 C 1.566406 -5.5 1.484375 -4.953125 1.484375 -4.390625 C 1.484375 -3.847656 1.570312 -3.316406 1.75 -2.796875 C 1.925781 -2.273438 2.160156 -1.804688 2.453125 -1.390625 C 2.742188 -0.984375 3.070312 -0.660156 3.4375 -0.421875 C 3.800781 -0.179688 4.179688 -0.0625 4.578125 -0.0625 C 5.222656 -0.0625 5.738281 -0.15625 6.125 -0.34375 C 6.519531 -0.53125 6.742188 -0.738281 6.796875 -0.96875 C 6.796875 -0.988281 6.796875 -1.0625 6.796875 -1.1875 C 6.796875 -1.3125 6.789062 -1.46875 6.78125 -1.65625 C 6.78125 -1.84375 6.78125 -2.023438 6.78125 -2.203125 C 6.78125 -2.378906 6.773438 -2.523438 6.765625 -2.640625 C 6.765625 -2.765625 6.765625 -2.828125 6.765625 -2.828125 L 6.765625 -3.796875 L 7.5625 -3.796875 L 7.5625 -0.4375 C 7.875 -0.519531 8.140625 -0.613281 8.359375 -0.71875 L 8.390625 -0.6875 C 8.097656 -0.550781 7.734375 -0.421875 7.296875 -0.296875 C 6.867188 -0.179688 6.410156 -0.0820312 5.921875 0 C 5.429688 0.0703125 4.9375 0.109375 4.4375 0.109375 Z M 4.4375 0.109375 "/></g></g></g><g fill="#000000" fill-opacity="1"><g transform="translate(238.440137, 212.32938)"><g><path d="M 1.125 0.015625 L 1.125 -8.765625 L 5.640625 -8.765625 L 5.640625 -8.734375 L 5.75 -7.765625 L 5.65625 -7.765625 L 5.59375 -7.90625 C 5.5625 -8.039062 5.484375 -8.164062 5.359375 -8.28125 C 5.242188 -8.40625 5.101562 -8.503906 4.9375 -8.578125 C 4.78125 -8.660156 4.625 -8.703125 4.46875 -8.703125 L 1.90625 -8.703125 L 1.90625 -4.546875 L 3.796875 -4.546875 C 3.941406 -4.546875 4.085938 -4.582031 4.234375 -4.65625 C 4.390625 -4.738281 4.519531 -4.835938 4.625 -4.953125 C 4.738281 -5.078125 4.804688 -5.207031 4.828125 -5.34375 L 4.859375 -5.484375 L 4.953125 -5.484375 L 4.953125 -4.546875 L 4.96875 -4.546875 L 4.96875 -4.5 L 4.953125 -4.5 L 4.953125 -3.5625 L 4.859375 -3.5625 L 4.828125 -3.703125 C 4.804688 -3.835938 4.738281 -3.960938 4.625 -4.078125 C 4.519531 -4.203125 4.390625 -4.300781 4.234375 -4.375 C 4.085938 -4.457031 3.941406 -4.5 3.796875 -4.5 L 1.90625 -4.5 L 1.90625 -0.359375 C 1.90625 -0.285156 1.929688 -0.210938 1.984375 -0.140625 C 2.046875 -0.078125 2.144531 -0.046875 2.28125 -0.046875 L 4.484375 -0.046875 C 4.679688 -0.046875 4.878906 -0.078125 5.078125 -0.140625 C 5.273438 -0.210938 5.453125 -0.300781 5.609375 -0.40625 C 5.765625 -0.507812 5.863281 -0.617188 5.90625 -0.734375 L 5.96875 -0.875 L 6.0625 -0.875 C 6.050781 -0.84375 6.035156 -0.757812 6.015625 -0.625 C 5.992188 -0.488281 5.96875 -0.351562 5.9375 -0.21875 C 5.914062 -0.0820312 5.90625 -0.0078125 5.90625 0 Z M 1.125 0.015625 "/></g></g></g><g fill="#000000" fill-opacity="1"><g transform="translate(248.272648, 212.32938)"><g><path d="M 1.140625 0 L 1.140625 -8.765625 L 3.640625 -8.765625 C 3.960938 -8.765625 4.28125 -8.695312 4.59375 -8.5625 C 4.90625 -8.425781 5.179688 -8.238281 5.421875 -8 C 5.671875 -7.769531 5.867188 -7.503906 6.015625 -7.203125 C 6.160156 -6.910156 6.234375 -6.613281 6.234375 -6.3125 C 6.234375 -5.988281 6.144531 -5.691406 5.96875 -5.421875 C 5.800781 -5.160156 5.578125 -4.9375 5.296875 -4.75 C 5.015625 -4.5625 4.703125 -4.425781 4.359375 -4.34375 L 6.125 -0.703125 C 6.238281 -0.472656 6.351562 -0.304688 6.46875 -0.203125 C 6.59375 -0.0976562 6.769531 -0.0351562 7 -0.015625 C 6.613281 -0.015625 6.300781 -0.0351562 6.0625 -0.078125 C 5.832031 -0.128906 5.65625 -0.203125 5.53125 -0.296875 C 5.40625 -0.398438 5.300781 -0.539062 5.21875 -0.71875 C 5.039062 -1.082031 4.863281 -1.453125 4.6875 -1.828125 C 4.507812 -2.203125 4.34375 -2.550781 4.1875 -2.875 C 4.039062 -3.207031 3.914062 -3.492188 3.8125 -3.734375 C 3.707031 -3.972656 3.632812 -4.144531 3.59375 -4.25 L 1.921875 -4.25 L 1.921875 0 Z M 1.921875 -4.453125 L 3.640625 -4.453125 C 3.929688 -4.453125 4.207031 -4.535156 4.46875 -4.703125 C 4.726562 -4.878906 4.941406 -5.117188 5.109375 -5.421875 C 5.285156 -5.734375 5.375 -6.082031 5.375 -6.46875 C 5.375 -6.738281 5.316406 -7 5.203125 -7.25 C 5.085938 -7.507812 4.9375 -7.742188 4.75 -7.953125 C 4.5625 -8.160156 4.351562 -8.320312 4.125 -8.4375 C 3.894531 -8.5625 3.65625 -8.625 3.40625 -8.625 L 1.921875 -8.625 Z M 1.921875 -4.453125 "/></g></g></g></svg>